<svg width="60" height="200" viewBox="0 0 60 200" fill="none" xmlns="http://www.w3.org/2000/svg">
  <!-- Base do poste -->
  <rect x="25" y="180" width="10" height="15" fill="#2C2C2C"/>
  <ellipse cx="30" cy="195" rx="15" ry="5" fill="#1A1A1A"/>
  
  <!-- Poste principal -->
  <rect x="27" y="30" width="6" height="150" fill="#E0E0E0" stroke="#C0C0C0" stroke-width="1"/>
  
  <!-- Cilindro do poste -->
  <rect x="20" y="40" width="20" height="130" rx="10" fill="#FFFFFF" stroke="#E0E0E0" stroke-width="2"/>
  
  <!-- Espirais vermelhas -->
  <path d="M20 50 Q35 60 20 70 Q35 80 20 90 Q35 100 20 110 Q35 120 20 130 Q35 140 20 150 Q35 160 20 170" stroke="#FF0000" stroke-width="4" fill="none"/>
  
  <!-- Espirais azuis -->
  <path d="M40 50 Q25 60 40 70 Q25 80 40 90 Q25 100 40 110 Q25 120 40 130 Q25 140 40 150 Q25 160 40 170" stroke="#0066CC" stroke-width="4" fill="none"/>
  
  <!-- Tampa superior -->
  <ellipse cx="30" cy="40" rx="12" ry="4" fill="#C0C0C0" stroke="#A0A0A0" stroke-width="1"/>
  <ellipse cx="30" cy="38" rx="10" ry="3" fill="#E0E0E0"/>
  
  <!-- Tampa inferior -->
  <ellipse cx="30" cy="170" rx="12" ry="4" fill="#C0C0C0" stroke="#A0A0A0" stroke-width="1"/>
  <ellipse cx="30" cy="168" rx="10" ry="3" fill="#E0E0E0"/>
  
  <!-- Suporte superior -->
  <rect x="15" y="20" width="30" height="8" rx="4" fill="#2C2C2C" stroke="#1A1A1A" stroke-width="1"/>
  <circle cx="18" cy="24" r="2" fill="#606060"/>
  <circle cx="42" cy="24" r="2" fill="#606060"/>
  
  <!-- Cabo de fixação -->
  <rect x="28" y="10" width="4" height="15" fill="#404040"/>
  
  <!-- Brilho no vidro -->
  <ellipse cx="25" cy="55" rx="2" ry="8" fill="#FFFFFF" opacity="0.6"/>
  <ellipse cx="25" cy="80" rx="2" ry="8" fill="#FFFFFF" opacity="0.6"/>
  <ellipse cx="25" cy="105" rx="2" ry="8" fill="#FFFFFF" opacity="0.6"/>
  <ellipse cx="25" cy="130" rx="2" ry="8" fill="#FFFFFF" opacity="0.6"/>
  <ellipse cx="25" cy="155" rx="2" ry="8" fill="#FFFFFF" opacity="0.6"/>
</svg> 