<svg width="120" height="40" viewBox="0 0 120 40" fill="none" xmlns="http://www.w3.org/2000/svg">
  <!-- Corpo do pente -->
  <rect x="10" y="15" width="100" height="10" rx="2" fill="#2C2C2C" stroke="#1A1A1A" stroke-width="1"/>
  
  <!-- Dentes do pente -->
  <rect x="15" y="10" width="2" height="15" fill="#404040"/>
  <rect x="19" y="8" width="2" height="19" fill="#404040"/>
  <rect x="23" y="10" width="2" height="15" fill="#404040"/>
  <rect x="27" y="8" width="2" height="19" fill="#404040"/>
  <rect x="31" y="10" width="2" height="15" fill="#404040"/>
  <rect x="35" y="8" width="2" height="19" fill="#404040"/>
  <rect x="39" y="10" width="2" height="15" fill="#404040"/>
  <rect x="43" y="8" width="2" height="19" fill="#404040"/>
  <rect x="47" y="10" width="2" height="15" fill="#404040"/>
  <rect x="51" y="8" width="2" height="19" fill="#404040"/>
  <rect x="55" y="10" width="2" height="15" fill="#404040"/>
  <rect x="59" y="8" width="2" height="19" fill="#404040"/>
  <rect x="63" y="10" width="2" height="15" fill="#404040"/>
  <rect x="67" y="8" width="2" height="19" fill="#404040"/>
  <rect x="71" y="10" width="2" height="15" fill="#404040"/>
  <rect x="75" y="8" width="2" height="19" fill="#404040"/>
  <rect x="79" y="10" width="2" height="15" fill="#404040"/>
  <rect x="83" y="8" width="2" height="19" fill="#404040"/>
  <rect x="87" y="10" width="2" height="15" fill="#404040"/>
  <rect x="91" y="8" width="2" height="19" fill="#404040"/>
  <rect x="95" y="10" width="2" height="15" fill="#404040"/>
  <rect x="99" y="8" width="2" height="19" fill="#404040"/>
  <rect x="103" y="10" width="2" height="15" fill="#404040"/>
  
  <!-- Cabo -->
  <rect x="105" y="17" width="8" height="6" rx="3" fill="#8B4513" stroke="#654321" stroke-width="1"/>
  
  <!-- Brilho -->
  <rect x="12" y="16" width="96" height="2" rx="1" fill="#606060" opacity="0.7"/>
  
  <!-- Marca/logo -->
  <text x="55" y="21" text-anchor="middle" font-family="serif" font-size="4" fill="#808080">BARBER</text>
</svg> 