<svg width="200" height="100" viewBox="0 0 200 100" fill="none" xmlns="http://www.w3.org/2000/svg">
  <!-- Fundo do escudo -->
  <path d="M100 10 L160 25 L155 75 Q100 90 45 75 L40 25 Z" fill="#1A1A1A" stroke="#333333" stroke-width="2"/>
  
  <!-- Borda interna -->
  <path d="M100 15 L150 27 L147 70 Q100 82 53 70 L50 27 Z" fill="none" stroke="#FFD700" stroke-width="1.5"/>
  
  <!-- Tesouras cruzadas -->
  <g transform="translate(70, 30)">
    <!-- Tesoura esquerda -->
    <path d="M0 10 L20 20 L18 22 L-2 12 Z" fill="#C0C0C0"/>
    <path d="M0 30 L20 20 L18 18 L-2 28 Z" fill="#C0C0C0"/>
    <circle cx="-2" cy="12" r="4" fill="#2C2C2C"/>
    <circle cx="-2" cy="28" r="4" fill="#2C2C2C"/>
    <circle cx="18" cy="20" r="2" fill="#808080"/>
  </g>
  
  <g transform="translate(110, 30) scale(-1, 1)">
    <!-- Tesoura direita (espelhada) -->
    <path d="M0 10 L20 20 L18 22 L-2 12 Z" fill="#C0C0C0"/>
    <path d="M0 30 L20 20 L18 18 L-2 28 Z" fill="#C0C0C0"/>
    <circle cx="-2" cy="12" r="4" fill="#2C2C2C"/>
    <circle cx="-2" cy="28" r="4" fill="#2C2C2C"/>
    <circle cx="18" cy="20" r="2" fill="#808080"/>
  </g>
  
  <!-- Pente central -->
  <rect x="95" y="35" width="10" height="4" rx="1" fill="#8B4513"/>
  <rect x="92" y="32" width="2" height="10" fill="#A0522D"/>
  <rect x="94" y="30" width="2" height="14" fill="#A0522D"/>
  <rect x="96" y="32" width="2" height="10" fill="#A0522D"/>
  <rect x="98" y="30" width="2" height="14" fill="#A0522D"/>
  <rect x="100" y="32" width="2" height="10" fill="#A0522D"/>
  <rect x="102" y="30" width="2" height="14" fill="#A0522D"/>
  <rect x="104" y="32" width="2" height="10" fill="#A0522D"/>
  <rect x="106" y="30" width="2" height="14" fill="#A0522D"/>
  <rect x="108" y="32" width="2" height="10" fill="#A0522D"/>
  
  <!-- Navalha -->
  <path d="M85 55 L115 55 L118 60 L115 65 L85 60 Z" fill="#E8E8E8" stroke="#C0C0C0" stroke-width="1"/>
  <rect x="82" y="57" width="8" height="6" rx="3" fill="#8B4513"/>
  <path d="M115 55 L118 60 L115 65" stroke="#808080" stroke-width="0.5" fill="none"/>
  
  <!-- Texto "BARBER" -->
  <text x="100" y="82" text-anchor="middle" font-family="serif" font-size="12" font-weight="bold" fill="#FFD700">BARBER</text>
  <text x="100" y="92" text-anchor="middle" font-family="serif" font-size="8" fill="#C0C0C0">SHOP</text>
  
  <!-- Estrelas decorativas -->
  <path d="M60 20 L62 25 L67 25 L63 28 L65 33 L60 30 L55 33 L57 28 L53 25 L58 25 Z" fill="#FFD700"/>
  <path d="M140 20 L142 25 L147 25 L143 28 L145 33 L140 30 L135 33 L137 28 L133 25 L138 25 Z" fill="#FFD700"/>
  
  <!-- Ano de fundação -->
  <text x="100" y="20" text-anchor="middle" font-family="serif" font-size="6" fill="#C0C0C0">EST. 2024</text>
</svg> 