<svg width="120" height="60" viewBox="0 0 120 60" fill="none" xmlns="http://www.w3.org/2000/svg">
  <!-- Fundo -->
  <rect x="5" y="5" width="110" height="50" rx="8" fill="#1A1A1A" stroke="#D4AF37" stroke-width="2"/>
  
  <!-- Tesouras cruzadas -->
  <g transform="translate(25, 20)">
    <path d="M0 5 L12 10 L10 12 L-2 7 Z" fill="#D4AF37"/>
    <path d="M0 15 L12 10 L10 8 L-2 13 Z" fill="#D4AF37"/>
    <circle cx="-1" cy="7" r="2" fill="#1A1A1A"/>
    <circle cx="-1" cy="13" r="2" fill="#1A1A1A"/>
  </g>
  
  <g transform="translate(75, 20) scale(-1, 1)">
    <path d="M0 5 L12 10 L10 12 L-2 7 Z" fill="#D4AF37"/>
    <path d="M0 15 L12 10 L10 8 L-2 13 Z" fill="#D4AF37"/>
    <circle cx="-1" cy="7" r="2" fill="#1A1A1A"/>
    <circle cx="-1" cy="13" r="2" fill="#1A1A1A"/>
  </g>
  
  <!-- Texto -->
  <text x="60" y="35" text-anchor="middle" font-family="serif" font-size="12" font-weight="bold" fill="#D4AF37">BARBER</text>
  <text x="60" y="47" text-anchor="middle" font-family="serif" font-size="8" fill="#FFF">SHOP</text>
</svg> 