<svg width="60" height="120" viewBox="0 0 60 120" fill="none" xmlns="http://www.w3.org/2000/svg">
  <!-- Corpo da máquina -->
  <rect x="15" y="20" width="30" height="80" rx="8" fill="#2C2C2C" stroke="#1A1A1A" stroke-width="2"/>
  
  <!-- Cabeçote de corte -->
  <rect x="12" y="15" width="36" height="12" rx="3" fill="#404040" stroke="#2C2C2C" stroke-width="1"/>
  
  <!-- Lâminas -->
  <rect x="14" y="12" width="2" height="8" fill="#C0C0C0"/>
  <rect x="17" y="12" width="2" height="8" fill="#C0C0C0"/>
  <rect x="20" y="12" width="2" height="8" fill="#C0C0C0"/>
  <rect x="23" y="12" width="2" height="8" fill="#C0C0C0"/>
  <rect x="26" y="12" width="2" height="8" fill="#C0C0C0"/>
  <rect x="29" y="12" width="2" height="8" fill="#C0C0C0"/>
  <rect x="32" y="12" width="2" height="8" fill="#C0C0C0"/>
  <rect x="35" y="12" width="2" height="8" fill="#C0C0C0"/>
  <rect x="38" y="12" width="2" height="8" fill="#C0C0C0"/>
  <rect x="41" y="12" width="2" height="8" fill="#C0C0C0"/>
  <rect x="44" y="12" width="2" height="8" fill="#C0C0C0"/>
  
  <!-- Botão liga/desliga -->
  <circle cx="30" cy="35" r="4" fill="#FF4444" stroke="#CC0000" stroke-width="1"/>
  <circle cx="30" cy="35" r="2" fill="#FF6666"/>
  
  <!-- Display/indicador -->
  <rect x="20" y="45" width="20" height="8" rx="2" fill="#000080" stroke="#000040" stroke-width="1"/>
  <rect x="22" y="47" width="16" height="4" rx="1" fill="#0040FF"/>
  
  <!-- Controles -->
  <rect x="18" y="58" width="6" height="3" rx="1" fill="#606060"/>
  <rect x="26" y="58" width="8" height="3" rx="1" fill="#606060"/>
  <rect x="36" y="58" width="6" height="3" rx="1" fill="#606060"/>
  
  <!-- Textura do grip -->
  <rect x="17" y="70" width="26" height="2" fill="#404040"/>
  <rect x="17" y="74" width="26" height="2" fill="#404040"/>
  <rect x="17" y="78" width="26" height="2" fill="#404040"/>
  <rect x="17" y="82" width="26" height="2" fill="#404040"/>
  <rect x="17" y="86" width="26" height="2" fill="#404040"/>
  
  <!-- Cabo -->
  <path d="M30 105 Q25 110 30 115" stroke="#1A1A1A" stroke-width="3" fill="none"/>
  
  <!-- Base de apoio -->
  <ellipse cx="30" cy="118" rx="8" ry="2" fill="#1A1A1A"/>
</svg> 